<?xml version="1.0" encoding="UTF-8"?>
<!DOCTYPE svg PUBLIC "-//W3C//DTD SVG 1.1//EN" "http://www.w3.org/Graphics/SVG/1.1/DTD/svg11.dtd">
<!-- Creator: CorelDRAW X8 -->
<svg xmlns="http://www.w3.org/2000/svg" xml:space="preserve" width="2999px" height="1496px" version="1.1" style="shape-rendering:geometricPrecision; text-rendering:geometricPrecision; image-rendering:optimizeQuality; fill-rule:evenodd; clip-rule:evenodd"
viewBox="0 0 70260 35069"
 xmlns:xlink="http://www.w3.org/1999/xlink">
 <defs>
  <style type="text/css">
   <![CDATA[
    .fil0 {fill:#254287}
   ]]>
  </style>
 </defs>
 <g id="EBENE_1">
  <metadata id="CorelCorpID_0Corel-Layer"/>
  <path class="fil0" d="M43501 363c1090,-207 2517,-363 4333,-363 2231,0 3866,519 4904,1453 960,830 1557,2102 1557,3659 0,1582 -467,2828 -1375,3736 -1194,1272 -3140,1920 -5345,1920 -675,0 -1298,-25 -1817,-156 0,0 0,7006 0,7006 0,0 -2257,0 -2257,0 0,0 0,-17255 0,-17255zm2257 8407c493,130 1142,182 1869,182 2750,0 4385,-1349 4385,-3710 0,-2335 -1635,-3451 -4126,-3451 -986,0 -1739,103 -2128,181 0,0 0,6798 0,6798z"/>
  <polygon class="fil0" points="59287,130 59287,7447 67746,7447 67746,130 70029,130 70029,17618 67746,17618 67746,9419 59287,9419 59287,17618 57004,17618 57004,130 "/>
  <path class="fil0" d="M2867 32357c0,0 -2867,-8744 -2867,-8744 0,0 1233,0 1233,0 0,0 1362,4307 1362,4307 363,1181 687,2257 934,3269 0,0 26,0 26,0 246,-1012 597,-2115 999,-3256 0,0 1479,-4320 1479,-4320 0,0 1206,0 1206,0 0,0 -3126,8744 -3126,8744 0,0 -1246,0 -1246,0z"/>
  <path class="fil0" d="M11513 32500c-1687,0 -3010,-1246 -3010,-3230 0,-2102 1388,-3334 3114,-3334 1803,0 3022,1309 3022,3217 0,2334 -1621,3347 -3113,3347 0,0 -13,0 -13,0zm38 -857c1090,0 1908,-1024 1908,-2452 0,-1063 -533,-2400 -1881,-2400 -1337,0 -1921,1245 -1921,2440 0,1374 779,2412 1882,2412 0,0 12,0 12,0z"/>
  <path class="fil0" d="M17714 28036c0,-739 -13,-1374 -52,-1958 0,0 999,0 999,0 0,0 52,1232 52,1232 0,0 39,0 39,0 285,-843 986,-1374 1751,-1374 117,0 208,12 312,38 0,0 0,1063 0,1063 -130,-12 -247,-25 -403,-25 -804,0 -1375,609 -1530,1453 -26,169 -39,350 -39,545 0,0 0,3347 0,3347 0,0 -1142,0 -1142,0 0,0 13,-4321 13,-4321z"/>
  <path class="fil0" d="M27913 30853c0,544 27,1076 91,1504 0,0 -1025,0 -1025,0 0,0 -104,-791 -104,-791 0,0 -38,0 -38,0 -338,492 -1025,934 -1921,934 -1271,0 -1920,-896 -1920,-1804 0,-1517 1349,-2348 3775,-2335 0,0 0,-129 0,-129 0,-519 -142,-1466 -1427,-1454 -596,0 -1206,169 -1647,467 0,0 -260,-765 -260,-765 519,-325 1285,-544 2076,-544 1933,0 2400,1309 2400,2567 0,0 0,2350 0,2350zm-1116 -1700c-1245,-26 -2659,194 -2659,1414 0,753 493,1089 1064,1089 830,0 1362,-519 1544,-1051 39,-117 51,-246 51,-363 0,0 0,-1089 0,-1089z"/>
  <path class="fil0" d="M31377 28036c0,-739 -12,-1374 -52,-1958 0,0 999,0 999,0 0,0 52,1232 52,1232 0,0 39,0 39,0 286,-843 986,-1374 1752,-1374 116,0 207,12 311,38 0,0 0,1063 0,1063 -129,-12 -246,-25 -402,-25 -804,0 -1375,609 -1531,1453 -26,169 -39,350 -39,545 0,0 0,3347 0,3347 0,0 -1141,0 -1141,0 0,0 12,-4321 12,-4321z"/>
  <polygon class="fil0" points="37279,23146 38420,23146 38420,32357 37279,32357 "/>
  <path class="fil0" d="M41936 23146c0,0 1142,0 1142,0 0,0 0,3931 0,3931 0,0 26,0 26,0 402,-701 1129,-1141 2140,-1141 1557,0 2647,1297 2647,3191 0,2257 -1427,3373 -2828,3373 -908,0 -1622,-350 -2101,-1180 0,0 -27,0 -27,0 0,0 -65,1037 -65,1037 0,0 -986,0 -986,0 39,-428 52,-1064 52,-1622 0,0 0,-7589 0,-7589zm1142 6694c0,143 13,285 39,415 220,792 895,1336 1712,1336 1207,0 1907,-972 1907,-2412 0,-1272 -648,-2349 -1868,-2349 -778,0 -1505,545 -1725,1402 -39,142 -65,298 -65,479 0,0 0,1129 0,1129z"/>
  <path class="fil0" d="M51601 29412c27,1544 1000,2179 2141,2179 818,0 1324,-142 1739,-311 0,0 207,805 207,805 -402,181 -1102,401 -2102,401 -1919,0 -3087,-1283 -3087,-3164 0,-1908 1129,-3400 2958,-3400 2050,0 2581,1803 2581,2958 0,234 -12,415 -38,545 0,0 -4399,-13 -4399,-13zm3335 -817c13,-714 -299,-1856 -1570,-1856 -1168,0 -1661,1064 -1752,1856 0,0 3322,0 3322,0z"/>
  <path class="fil0" d="M59087 28036c0,-739 -13,-1374 -52,-1958 0,0 999,0 999,0 0,0 52,1232 52,1232 0,0 39,0 39,0 286,-843 986,-1374 1752,-1374 116,0 207,12 311,38 0,0 0,1063 0,1063 -130,-12 -247,-25 -402,-25 -805,0 -1375,609 -1531,1453 -26,169 -39,350 -39,545 0,0 0,3347 0,3347 0,0 -1142,0 -1142,0 0,0 13,-4321 13,-4321z"/>
  <g>
   <path class="fil0" d="M70208 31435c0,1454 -298,2323 -895,2881 -623,558 -1505,753 -2297,753 -752,0 -1582,-183 -2088,-519 0,0 285,-882 285,-882 416,271 1064,505 1843,505 1167,0 2024,-609 2024,-2206 0,0 0,-687 0,-687 0,0 -26,0 -26,0 -338,584 -1025,1051 -1998,1051 -1558,0 -2673,-1323 -2673,-3075 0,-2127 1388,-3320 2841,-3320 1090,0 1674,557 1959,1076 0,0 26,0 26,0 0,0 39,-934 39,-934 0,0 1012,0 1012,0 -39,440 -52,947 -52,1712 0,0 0,3645 0,3645zm-1142 -2892c0,-182 -12,-351 -64,-507 -208,-674 -753,-1218 -1596,-1218 -1090,0 -1868,920 -1868,2386 0,1220 636,2258 1855,2258 714,0 1349,-442 1583,-1181 65,-181 90,-402 90,-610 0,0 0,-1128 0,-1128l0 0z"/>
  </g>
  <polygon class="fil0" points="297,17655 5,17655 5,95 297,95 "/>
  <polygon class="fil0" points="9123,17621 8651,17621 8651,95 9123,95 "/>
  <polygon class="fil0" points="17956,17621 17339,17621 17339,96 17956,96 "/>
  <polygon class="fil0" points="26865,17599 25930,17599 25930,95 26865,95 "/>
  <polygon class="fil0" points="35872,17538 34631,17538 34631,95 35872,95 "/>
 </g>
</svg>
